#!OML:ASF I:\Actors\actors\Patient Classification 1\Patient 1\Session 1\Subject1.ASF
:FULLY-SPECIFIED
:DEGREES
1576
root 0.108115 17.8096 7.76986 16.3168 -9.72259 -14.3319
lowerback 10.5663 1.52788 5.005
upperback 6.09992 2.38511 -3.72536
thorax 0.848235 1.38024 -6.96166
lowerneck -6.95498 1.92134 1.18216
upperneck 27.9546 -0.341104 10.3547
head 10.0387 1.00204 3.41789
rclavicle 3.33958e-014 7.15625e-014
rhumerus 66.165 42.034 22.2416
rradius 94.4561
rwrist -32.3685
rhand 21.2005 -41.2769
rfingers 7.12502
rthumb 45.6517 -64.515
lclavicle 3.33958e-014 7.15625e-014
lhumerus 31.7725 -67.1301 21.5321
lradius 59.1426
lwrist 54.2053
lhand -11.5105 -7.14495
lfingers 7.12502
lthumb 14.5287 22.3263
rfemur -18.9975 19.0192 27.1595
rtibia 11.2085
rfoot -9.40441 -10.9203
rtoes -3.67464
lfemur -7.70076 -30.2264 1.94427
ltibia -0.431068
lfoot -18.7313 50.0232
ltoes 11.4723
1577
root 0.0993574 17.8093 7.75545 16.2996 -8.39159 -14.0559
lowerback 10.6741 1.65998 5.38624
upperback 6.27959 2.60088 -3.47195
thorax 1.02143 1.50654 -6.92893
lowerneck -6.74707 1.4842 0.610583
upperneck 27.2099 -0.84116 10.6588
head 9.74947 0.730009 3.54488
rclavicle -2.22639e-014 5.08889e-014
rhumerus 65.7236 41.1325 21.897
rradius 93.041
rwrist -31.9168
rhand 21.1935 -40.4288
rfingers 7.12502
rthumb 45.6453 -63.6696
lclavicle -2.22639e-014 5.08889e-014
lhumerus 32.8248 -67.1162 21.5353
lradius 58.9664
lwrist 53.8662
lhand -12.3099 -8.34001
lfingers 7.12502
lthumb 13.7583 21.1851
rfemur -19.1 18.8131 26.8908
rtibia 11.1441
rfoot -9.58956 -11.9249
rtoes -2.54541
lfemur -8.5019 -31.0862 2.32355
ltibia -0.506237
lfoot -17.624 49.9173
ltoes 10.1406
1578
root 0.0899538 17.8094 7.7377 16.2982 -6.94427 -13.8012
lowerback 10.8346 1.81593 5.87771
upperback 6.46579 2.86005 -3.16103
thorax 1.18523 1.65724 -6.90315
lowerneck -6.56281 0.991343 0.00880909
upperneck 26.4709 -1.43352 11.0394
head 9.48294 0.420202 3.69858
rclavicle 1.59028e-015 2.38542e-014
rhumerus 65.1378 40.3952 21.5351
rradius 91.575
rwrist -31.7402
rhand 21.0463 -39.8545
rfingers 7.12502
rthumb 45.5085 -63.151
lclavicle 1.59028e-015 2.38542e-014
lhumerus 34.2446 -67.0912 21.3796
lradius 58.8552
lwrist 53.4004
lhand -12.9552 -8.54591
lfingers 7.12502
lthumb 13.1363 21.0203
rfemur -19.2341 18.5192 26.662
rtibia 11.0896
rfoot -9.7989 -12.9941
rtoes -1.96721
lfemur -9.46066 -31.8059 2.82312
ltibia -0.482918
lfoot -16.5243 49.5718
ltoes 8.71001
1579
root 0.0795461 17.8097 7.72069 16.329 -5.4818 -13.4954
lowerback 10.9836 1.96354 6.29713
upperback 6.62351 3.1021 -2.78391
thorax 1.31506 1.79404 -6.7632
lowerneck -6.21537 0.460215 -0.576281
upperneck 25.6173 -2.0186 11.2294
head 9.15228 0.087187 3.77885
rclavicle 3.18055e-015 1.11319e-014
rhumerus 64.6926 39.8016 21.2634
rradius 90.0363
rwrist -32.0515
rhand 21.1098 -39.3834
rfingers 7.12502
rthumb 45.5675 -62.6559
lclavicle 3.18055e-015 1.11319e-014
lhumerus 35.536 -67.1386 21.377
lradius 58.7687
lwrist 53.0701
lhand -13.3995 -8.65352
lfingers 7.12502
lthumb 12.708 20.9398
rfemur -19.3567 18.236 26.3661
rtibia 10.943
rfoot -10.0094 -14.1282
rtoes -1.86141
lfemur -10.402 -32.676 3.285
ltibia -0.552078
lfoot -15.656 49.323
ltoes 7.67585
1580
root 0.0704367 17.8079 7.70834 16.3825 -4.02785 -13.1408
lowerback 10.9461 2.1129 6.72334
upperback 6.86364 3.33446 -2.39351
thorax 1.63284 1.93625 -6.59896
lowerneck -5.7238 -0.106038 -1.12644
upperneck 24.5213 -2.61242 11.329
head 8.72014 -0.267972 3.81568
rclavicle 3.18055e-015 -1.59028e-015
rhumerus 64.208 39.2215 20.8821
rradius 88.339
rwrist -32.4559
rhand 21.0238 -38.8874
rfingers 7.12502
rthumb 45.4876 -62.1923
lclavicle 3.18055e-015 -1.59028e-015
lhumerus 36.6078 -67.0261 21.6348
lradius 58.6412
lwrist 53.0232
lhand -13.0766 -8.78488
lfingers 7.12502
lthumb 13.0193 20.7888
rfemur -19.4508 18.0276 25.9891
rtibia 10.7832
rfoot -10.3086 -15.3243
rtoes -1.41518
lfemur -11.3198 -33.7795 3.68184
ltibia -0.673375
lfoot -14.691 49.2971
ltoes 6.62946
1581
root 0.0621487 17.8071 7.69251 16.4443 -2.50494 -12.7764
lowerback 10.8304 2.24396 7.18969
upperback 7.21825 3.53446 -1.93633
thorax 2.1095 2.07271 -6.37393
lowerneck -5.35424 -0.679882 -1.74603
upperneck 23.3432 -3.2264 11.518
head 8.29901 -0.630623 3.89846
rclavicle -4.92986e-014 -2.70347e-014
rhumerus 63.6712 38.5636 20.5124
rradius 86.5431
rwrist -32.3857
rhand 19.9744 -38.7497
rfingers 7.12502
rthumb 44.5112 -62.4392
lclavicle -4.92986e-014 -2.70347e-014
lhumerus 37.7057 -66.7729 21.9909
lradius 58.4462
lwrist 52.7591
lhand -12.9638 -9.17579
lfingers 7.12502
lthumb 13.1281 20.391
rfemur -19.5808 17.8409 25.5857
rtibia 10.6875
rfoot -10.6976 -16.6117
rtoes -0.763031
lfemur -12.417 -34.5994 4.14827
ltibia -0.679056
lfoot -13.5289 48.962
ltoes 5.41413
1582
root 0.0538657 17.8072 7.67296 16.5414 -0.923407 -12.3901
lowerback 11.1656 2.39298 7.52268
upperback 7.22462 3.78476 -1.33126
thorax 1.95521 2.18897 -5.95654
lowerneck -4.57861 -1.29629 -2.2596
upperneck 22.2728 -3.88192 11.5281
head 7.85098 -1.0295 3.90769
rclavicle -4.77083e-015 -1.27222e-014
rhumerus 63.2923 38.4982 20.3925
rradius 84.7099
rwrist -31.598
rhand 18.7452 -38.3873
rfingers 7.12502
rthumb 43.3644 -62.5032
lclavicle -4.77083e-015 -1.27222e-014
lhumerus 38.2799 -67.0986 22.9756
lradius 58.3332
lwrist 52.415
lhand -13.233 -9.49484
lfingers 7.12502
lthumb 12.8686 20.0884
rfemur -19.7541 17.6518 25.1402
rtibia 10.5741
rfoot -11.0462 -17.9725
rtoes 0.0257069
lfemur -13.6672 -35.1767 4.67173
ltibia -0.624993
lfoot -12.4431 48.3845
ltoes 4.04876
1583
root 0.0468273 17.8041 7.65787 16.6493 0.652615 -11.9728
lowerback 11.2793 2.54716 7.94996
upperback 7.29017 4.03453 -0.735572
thorax 1.99195 2.3182 -5.58868
lowerneck -3.69193 -1.88714 -2.63512
upperneck 21.2141 -4.51222 11.4718
head 7.39263 -1.41491 3.88301
rclavicle -2.8625e-014 1.43125e-014
rhumerus 62.7691 38.4873 19.9983
rradius 82.7513
rwrist -30.5331
rhand 18.2968 -37.436
rfingers 7.12502
rthumb 42.9452 -61.7013
lclavicle -2.8625e-014 1.43125e-014
lhumerus 38.9676 -67.4744 23.7291
lradius 58.3678
lwrist 52.4063
lhand -13.3982 -9.68589
lfingers 7.12502
lthumb 12.7093 19.9074
rfemur -19.8681 17.489 24.6517
rtibia 10.3906
rfoot -11.3797 -19.3209
rtoes 1.15189
lfemur -14.8705 -35.8733 5.12103
ltibia -0.591133
lfoot -11.2645 47.9588
ltoes 2.27701
1584
root 0.0402166 17.7996 7.64533 16.7301 2.25109 -11.4844
lowerback 11.2917 2.6375 8.30059
upperback 7.44631 4.18148 -0.142228
thorax 2.15675 2.40148 -5.16342
lowerneck -2.9275 -2.41989 -2.94744
upperneck 20.1683 -5.09204 11.4803
head 6.96631 -1.76387 3.88193
rclavicle -1.59028e-014 3.97569e-015
rhumerus 62.1647 38.3459 19.2078
rradius 80.789
rwrist -29.7407
rhand 18.5264 -36.7532
rfingers 7.12502
rthumb 43.16 -60.9424
lclavicle -1.59028e-014 3.97569e-015
lhumerus 39.4249 -67.7398 24.5426
lradius 58.4402
lwrist 52.4145
lhand -13.5384 -9.93652
lfingers 7.12502
lthumb 12.5742 19.6651
rfemur -19.8823 17.3304 24.0927
rtibia 10.1543
rfoot -11.7815 -20.6815
rtoes 2.25414
lfemur -16.0369 -36.5127 5.42609
ltibia -0.53278
lfoot -9.64589 47.3906
ltoes 0.0316338
1585
root 0.0333253 17.7952 7.63087 16.8429 3.87945 -10.9682
lowerback 11.3577 2.6326 8.5713
upperback 7.5804 4.20103 0.485858
thorax 2.23884 2.41314 -4.65336
lowerneck -2.27892 -2.93275 -3.1699
upperneck 19.0495 -5.62627 11.3394
head 6.53591 -2.09587 3.82484
rclavicle -3.71727e-014 -2.06736e-014
rhumerus 61.5639 38.1548 18.0403
rradius 78.9233
rwrist -29.0624
rhand 19.2838 -36.856
rfingers 7.12502
rthumb 43.8674 -60.7882
lclavicle -3.71727e-014 -2.06736e-014
lhumerus 39.585 -67.935 25.5498
lradius 58.446
lwrist 52.2486
lhand -13.682 -10.0384
lfingers 7.12502
lthumb 12.4357 19.5716
rfemur -19.9249 17.2459 23.4858
rtibia 9.95655
rfoot -12.3054 -22.1603
rtoes 3.42313
lfemur -17.2781 -36.9905 5.73213
ltibia -0.448881
lfoot -8.11548 46.5749
ltoes -1.92012
